<?xml version="1.0" standalone="no"?>
<!DOCTYPE svg PUBLIC "-//W3C//DTD SVG 20010904//EN"
 "http://www.w3.org/TR/2001/REC-SVG-20010904/DTD/svg10.dtd">
<svg version="1.0" xmlns="http://www.w3.org/2000/svg"
 width="176.000000pt" height="169.000000pt" viewBox="0 0 176.000000 169.000000"
 preserveAspectRatio="xMidYMid meet">

<g transform="translate(0.000000,169.000000) scale(0.100000,-0.100000)"
fill="#000000" stroke="none">
<path d="M741 1445 c-253 -55 -448 -270 -482 -531 -41 -313 174 -614 486 -679
351 -73 685 156 743 508 14 88 14 106 0 191 -58 355 -397 586 -747 511z m283
-41 c160 -41 305 -160 375 -307 46 -96 61 -161 61 -260 -1 -261 -182 -496
-436 -562 -75 -19 -223 -19 -298 0 -160 42 -304 160 -374 306 -47 98 -62 162
-62 262 0 255 176 487 425 558 78 23 227 24 309 3z"/>
<path d="M834 1302 c-26 -31 -51 -61 -55 -66 -4 -4 -17 -1 -29 7 -21 15 -26
14 -74 -23 l-52 -38 -64 36 -63 36 -43 -48 c-24 -26 -59 -79 -79 -119 l-36
-72 271 -3 c149 -1 391 -1 536 0 l265 3 -36 72 c-20 40 -55 93 -79 119 l-43
48 -57 -33 -58 -32 -45 35 c-42 33 -47 34 -68 20 -21 -14 -25 -12 -83 50 l-60
65 -48 -57z m114 -41 c-7 -2 -21 -10 -30 -18 -9 -8 -23 -13 -30 -10 -7 2 -20
1 -29 -4 -10 -5 -21 -2 -31 10 -14 17 -12 22 20 60 l35 42 39 -38 c24 -24 34
-39 26 -42z m-174 -53 c37 -30 37 -32 17 -40 -12 -4 -33 -3 -47 2 -14 6 -30 8
-35 4 -5 -3 -12 2 -15 11 -4 10 -13 14 -23 10 -9 -3 -2 6 14 19 17 14 35 25
40 26 6 0 28 -14 49 -32z m304 20 c18 -18 14 -28 -12 -28 -25 0 -51 22 -39 33
10 11 38 8 51 -5z"/>
<path d="M381 857 c-15 -85 -14 -87 12 -87 21 0 25 6 33 58 8 52 12 57 36 60
26 3 26 2 17 -35 -15 -66 -12 -83 15 -83 22 0 25 5 31 60 6 55 9 60 32 60 25
0 25 -1 18 -61 -7 -60 -7 -61 16 -57 20 2 25 11 33 56 8 44 6 55 -9 72 -16 17
-31 20 -121 20 l-102 0 -11 -63z"/>
<path d="M656 911 c-3 -4 -8 -33 -12 -62 -8 -72 3 -81 92 -77 l68 3 7 35 c22
113 22 110 -5 110 -25 0 -26 -1 -42 -93 -6 -36 -9 -38 -38 -35 l-31 3 3 63 c3
56 1 62 -17 62 -11 0 -22 -4 -25 -9z"/>
<path d="M847 913 c-2 -5 -7 -26 -11 -48 -4 -22 -9 -52 -12 -67 -5 -25 -3 -28
20 -28 21 0 26 6 32 35 6 33 9 35 44 35 l38 0 -8 -36 c-8 -34 -7 -35 18 -32
23 3 28 10 35 47 6 30 5 46 -3 51 -8 5 -6 11 5 20 22 18 19 30 -9 30 -14 0
-30 -10 -40 -25 -10 -16 -26 -25 -41 -25 -20 0 -25 5 -25 25 0 18 -5 25 -19
25 -11 0 -22 -3 -24 -7z"/>
<path d="M1037 913 c-12 -22 -17 -104 -7 -123 10 -19 19 -21 83 -18 l71 3 7
35 c22 113 22 110 -5 110 -25 0 -26 -1 -42 -93 -6 -36 -9 -38 -38 -35 l-31 3
3 63 c3 56 1 62 -17 62 -11 0 -22 -3 -24 -7z"/>
<path d="M1225 908 c-2 -7 -6 -31 -10 -53 -3 -22 -9 -50 -12 -62 -5 -23 -3
-23 80 -23 47 0 89 5 92 10 4 6 -17 10 -56 10 l-61 0 7 65 c6 62 6 65 -15 65
-11 0 -22 -6 -25 -12z"/>
<path d="M355 633 c87 -209 298 -353 520 -353 226 0 444 152 525 366 l10 24
-535 0 -535 0 15 -37z m540 -23 c4 -6 1 -18 -6 -26 -11 -13 -14 -13 -27 0 -8
8 -11 19 -8 25 9 14 33 14 41 1z m5 -252 c0 -4 -11 -8 -25 -8 -28 0 -30 3 -14
32 11 21 12 21 25 3 8 -10 14 -22 14 -27z"/>
</g>
</svg>
